{"title":"30 Miinutes Or Less (2011) 720p MP4 450MB","uid":6795923,"size":472139578,"categoryP":"video","categoryS":"hd___movies","magnet":"?xt=urn:btih:116687cb08c0f5030150de7f7ba4c0a23f44eee4&amp;dn=30+Miinutes+Or+Less+%282011%29+720p+MP4+450MB&amp;tr=udp%3A%2F%2Ftracker.openbittorrent.com%3A80&amp;tr=udp%3A%2F%2Fopen.demonii.com%3A1337&amp;tr=udp%3A%2F%2Ftracker.coppersurfer.tk%3A6969&amp;tr=udp%3A%2F%2Fexodus.desync.com%3A6969","seeders":0,"leechers":0,"uploader":"joej191_2","files":1,"time":1320448945,"description":"Sorry my other account(joej191) gotten hack but here is my new one.\n\n\nWarrning this has cinavia code 3 for ps3 users !\n\nWelcome guys. \n\n\n\n\n\n\nVideo\nID                               : 1\nFormat                           : AVC\nFormat/Info                      : Advanced Video Codec\nFormat profile                   : &lt;a class=&quot;__cf_email__&quot; href=&quot;/cdn-cgi/l/email-protection&quot; data-cfemail=&quot;1b53727c735b5728352a&quot;&gt;[email&amp;#160;protected]&lt;/a&gt;&lt;script cf-hash='f9e31' type=&quot;text/javascript&quot;&gt;\n/* &lt;![CDATA[ */!function(){try{var t=&quot;currentScript&quot;in document?document.currentScript:function(){for(var t=document.getElementsByTagName(&quot;script&quot;),e=t.length;e--;)if(t[e].getAttribute(&quot;cf-hash&quot;))return t[e]}();if(t&amp;&amp;t.previousSibling){var e,r,n,i,c=t.previousSibling,a=c.getAttribute(&quot;data-cfemail&quot;);if(a){for(e=&quot;&quot;,r=parseInt(a.substr(0,2),16),n=2;a.length-n;n+=2)i=parseInt(a.substr(n,2),16)^r,e+=String.fromCharCode(i);e=document.createTextNode(e),c.parentNode.replaceChild(e,c)}}}catch(u){}}();/* ]]&gt; */&lt;/script&gt;\nFormat settings, CABAC           : Yes\nFormat settings, ReFrames        : 4 frames\nCodec ID                         : avc1\nCodec ID/Info                    : Advanced Video Coding\nDuration                         : 1h 23mn\nDuration_LastFrame               : 42ms\nBit rate mode                    : Variable\nBit rate                         : 723 Kbps\nMaximum bit rate                 : 6 316 Kbps\nWidth                            : 1 280 pixels\nHeight                           : 534 pixels\nDisplay aspect ratio             : 2.40:1\nFrame rate mode                  : Constant\nFrame rate                       : 23.976 fps\nColor space                      : YUV\nChroma subsampling               : 4:2:0\nBit depth                        : 8 bits\nScan type                        : Progressive\nBits/(Pixel*Frame)               : 0.044\nStream size                      : 429 MiB (95%)\nTitle                            : Imported with GPAC 0.4.6-DEV (internal rev. 5)\n\n\nAudio\nID                               : 2\nFormat                           : AAC\nFormat/Info                      : Advanced Audio Codec\nFormat profile                   : HE-AAC / LC\nCodec ID                         : 40\nDuration                         : 1h 23mn\nBit rate mode                    : Variable\nBit rate                         : 32.0 Kbps\nMaximum bit rate                 : 55.5 Kbps\nChannel(s)                       : 2 channels\nChannel positions                : Front: L R\nSampling rate                    : 48.0 KHz / 24.0 KHz\nCompression mode                 : Lossy\nStream size                      : 19.0 MiB (4%)","torrent":{"xt":"urn:btih:116687cb08c0f5030150de7f7ba4c0a23f44eee4","amp;dn":"30+Miinutes+Or+Less+%282011%29+720p+MP4+450MB","amp;tr":["udp%3A%2F%2Ftracker.openbittorrent.com%3A80","udp%3A%2F%2Fopen.demonii.com%3A1337","udp%3A%2F%2Ftracker.coppersurfer.tk%3A6969","udp%3A%2F%2Fexodus.desync.com%3A6969"],"infoHash":"116687cb08c0f5030150de7f7ba4c0a23f44eee4","infoHashBuffer":{"type":"Buffer","data":[17,102,135,203,8,192,245,3,1,80,222,127,123,164,192,162,63,68,238,228]},"announce":[],"urlList":[]}}